<?xml version="1.0" encoding="UTF-8" standalone="no"?>
<!-- Created with Inkscape (http://www.inkscape.org/) -->

<svg
   width="600"
   height="500"
   viewBox="0 0 158.75003 132.29169"
   version="1.1"
   id="svg5"
   inkscape:version="1.4 (e7c3feb100, 2024-10-09)"
   xml:space="preserve"
   sodipodi:docname="logo.svg"
   xmlns:inkscape="http://www.inkscape.org/namespaces/inkscape"
   xmlns:sodipodi="http://sodipodi.sourceforge.net/DTD/sodipodi-0.dtd"
   xmlns:xlink="http://www.w3.org/1999/xlink"
   xmlns="http://www.w3.org/2000/svg"
   xmlns:svg="http://www.w3.org/2000/svg"><sodipodi:namedview
     id="namedview7"
     pagecolor="#ffffff"
     bordercolor="#666666"
     borderopacity="1.0"
     inkscape:pageshadow="2"
     inkscape:pageopacity="0.0"
     inkscape:pagecheckerboard="0"
     inkscape:document-units="px"
     showgrid="false"
     units="px"
     width="800px"
     inkscape:showpageshadow="2"
     inkscape:deskcolor="#d1d1d1"
     inkscape:zoom="0.37060408"
     inkscape:cx="-859.4077"
     inkscape:cy="-155.1521"
     inkscape:window-width="1916"
     inkscape:window-height="1036"
     inkscape:window-x="0"
     inkscape:window-y="20"
     inkscape:window-maximized="1"
     inkscape:current-layer="g62" /><defs
     id="defs2" /><g
     inkscape:label="Calque 1"
     inkscape:groupmode="layer"
     id="layer1"
     transform="translate(-27.295362,-222.04609)"><rect
       style="fill:#ffffff;fill-opacity:1;stroke-width:31.0992;stroke-linecap:round;stroke-linejoin:round"
       id="rect10"
       width="158.75003"
       height="132.29169"
       x="27.295362"
       y="222.0461" /><g
       id="g67"
       transform="translate(-53.031769,-177.1032)"><path
         id="path57"
         style="fill:#4381b3;fill-opacity:1;stroke-width:7.97372;stroke-linecap:round;stroke-linejoin:round"
         d="m 159.7024,407.0926 c -34.10308,0 -67.515272,36.86121 -67.515267,73.16919 2e-6,33.0628 30.227777,46.56202 67.515267,46.56202 37.28749,0 67.51476,-13.49922 67.51476,-46.56202 0,-34.35587 -31.46985,-73.16919 -67.51476,-73.16919 z"
         sodipodi:nodetypes="sssss" /><g
         id="g62"
         transform="translate(-0.5520486)"><path
           id="path60"
           style="fill:#ffd43b;fill-opacity:1;stroke-width:7.32459;stroke-linecap:round;stroke-linejoin:round"
           d="m 122.5614,485.16083 c 0,35.04944 33.91207,36.02934 37.68608,36.02985 3.76431,5.1e-4 37.69951,-0.96711 37.69951,-36.02985 0,-12.85614 -6.69064,-20.35277 -37.68453,-20.35277 -30.9472,0 -37.70106,7.45171 -37.70106,20.35277 z"
           sodipodi:nodetypes="sssss" /><use
           x="0"
           y="0"
           xlink:href="#path61"
           id="use70"
           transform="matrix(-1,0,0,1,320.50839,0)" /><path
           id="path61"
           style="fill:#000000;stroke-width:8.02287;stroke-linecap:round;stroke-linejoin:round"
           d="m 148.94319,488.38757 c 0,5.02697 -0.081,9.10214 -5.76344,9.10214 -5.68242,0 -5.76345,-4.07516 -5.76345,-9.10214 0,-5.02698 0.37946,-9.10214 5.76345,-9.10214 5.38399,0 5.76344,4.07517 5.76344,9.10214 z"
           sodipodi:nodetypes="zzzzz" /></g><g
         id="g68"><path
           style="fill:#4381b3;fill-opacity:1;stroke:none;stroke-width:0.264583px;stroke-linecap:butt;stroke-linejoin:miter;stroke-opacity:1"
           d="m 102.32581,403.84749 c 3.05898,0.54121 7.6024,1.73187 13.54013,4.32963 11.87546,5.19551 16.46181,9.78843 17.53198,10.8586 4.18395,4.18395 -12.48325,35.53113 -26.9115,33.62955 -9.734618,-1.28298 -13.893469,-12.88766 -13.541058,-26.87127 0.176205,-6.9918 1.362933,-12.58668 2.50561,-16.4336 1.142676,-3.84693 3.81585,-6.05412 6.874838,-5.51291 z"
           id="path58"
           sodipodi:nodetypes="sssssss" /><path
           style="fill:#ffd43b;fill-opacity:1;stroke:none;stroke-width:0.264583px;stroke-linecap:butt;stroke-linejoin:miter;stroke-opacity:1"
           d="m 105.61328,412.53596 c 3.83104,0.32611 7.52734,2.13463 10.49784,5.00918 2.9705,2.87455 2.09699,4.68129 -2.41671,7.65455 -4.5137,2.97326 -6.82747,8.55528 -10.00048,12.73765 -3.17301,4.18237 -4.712596,-2.79211 -4.689865,-7.2414 0.02273,-4.44929 -0.0079,-7.97587 0.883765,-12.02521 0.89166,-4.04934 1.89442,-6.46089 5.72545,-6.13477 z"
           id="path59"
           sodipodi:nodetypes="zzzzzzz" /><path
           id="path63"
           style="fill:#4381b3;fill-opacity:1;stroke:none;stroke-width:7.9375;stroke-linecap:round;stroke-linejoin:round"
           d="m 99.779323,445.68313 c -0.893125,0.004 -1.76271,0.28673 -2.48667,0.80977 0.764231,1.19252 1.824521,2.59568 1.911979,3.26713 0.08746,0.67146 -0.637566,2.65155 -1.232951,4.07609 0.561997,0.26028 1.188302,0.3974 1.807642,0.39791 2.361297,-7e-5 0.667847,-8.54786 0,-8.5509 z"
           sodipodi:nodetypes="cczccc" /><path
           id="path64"
           style="fill:#4381b3;fill-opacity:1;stroke:none;stroke-width:7.9375;stroke-linecap:round;stroke-linejoin:round"
           d="m 126.433,413.66699 c -0.47226,0.70257 -0.72531,1.52954 -0.72709,2.37608 0.003,0.81943 8.54695,1.02987 8.55038,0 -2.7e-4,-0.76199 -0.14867,-1.42588 -0.53513,-2.0826 -1.26747,0.68116 -3.33743,1.53498 -3.82271,1.53498 -0.48529,0 -2.07369,-0.95609 -3.46545,-1.82846 z"
           sodipodi:nodetypes="cccczc" /></g><use
         x="0"
         y="0"
         xlink:href="#g68"
         id="use68"
         transform="matrix(-1,0,0,1,319.40429,0)" /><g
         id="g70"
         transform="translate(0,-11.184295)"><use
           x="0"
           y="0"
           xlink:href="#circle57"
           id="use69"
           transform="translate(82.464493)" /><circle
           style="fill:#000000;fill-opacity:1;stroke-width:8.18426;stroke-linecap:round;stroke-linejoin:round"
           id="circle57"
           cx="118.4699"
           cy="463.24899"
           r="7.3664227" /></g></g></g></svg>
